HIERARCHY
ROOT Character1_Hips
{
  OFFSET -54.3092 91.1576 -145.522
  CHANNELS 6 Xposition Yposition Zposition Zrotation Xrotation Yrotation
  JOINT Character1_Spine
  {
    OFFSET 0 8.754 -1.339
    CHANNELS 3 Zrotation Xrotation Yrotation
    JOINT Character1_Spine1
    {
      OFFSET 0 10.855 -0.645
      CHANNELS 3 Zrotation Xrotation Yrotation
      JOINT Character1_LeftShoulder
      {
        OFFSET 1.467 27.745 1.178
        CHANNELS 3 Zrotation Xrotation Yrotation
        JOINT Character1_LeftArm
        {
          OFFSET 18.486 -1.858 0.275
          CHANNELS 3 Zrotation Xrotation Yrotation
          JOINT Character1_LeftForeArm
          {
            OFFSET 32.391 -1.079 3.409
            CHANNELS 3 Zrotation Xrotation Yrotation
            JOINT Character1_LeftHand
            {
              OFFSET 28.678 -2.281 2.112
              CHANNELS 3 Zrotation Xrotation Yrotation
              End Site
              {
                OFFSET -0.000241878 -0.00028536 -9.11487e-005
              }
            }
            JOINT L_Radius
            {
              OFFSET -8.94447e-005 -0.392541 -0.0893675
              CHANNELS 3 Zrotation Xrotation Yrotation
              End Site
              {
                OFFSET 0 0 0
              }
            }
          }
          JOINT L_Humerus
          {
            OFFSET 42.9881 15.7281 -23.1008
            CHANNELS 3 Zrotation Xrotation Yrotation
            End Site
            {
              OFFSET 0 0 0
            }
          }
        }
        JOINT L_Shoulder
        {
          OFFSET 3.24498e-005 -0.000608592 -0.000527677
          CHANNELS 3 Zrotation Xrotation Yrotation
          End Site
          {
            OFFSET 0 0 0
          }
        }
      }
      JOINT Character1_RightShoulder
      {
        OFFSET -1.467 27.745 1.178
        CHANNELS 3 Zrotation Xrotation Yrotation
        JOINT Character1_RightArm
        {
          OFFSET -18.486 -1.858 0.275
          CHANNELS 3 Zrotation Xrotation Yrotation
          JOINT Character1_RightForeArm
          {
            OFFSET -32.391 -1.079 3.409
            CHANNELS 3 Zrotation Xrotation Yrotation
            JOINT Character1_RightHand
            {
              OFFSET -28.678 -2.281 2.112
              CHANNELS 3 Zrotation Xrotation Yrotation
              End Site
              {
                OFFSET 0.000589556 -0.000254961 0.000258925
              }
            }
            JOINT R_Radius
            {
              OFFSET 0.000437123 -0.392512 -0.0890171
              CHANNELS 3 Zrotation Xrotation Yrotation
              End Site
              {
                OFFSET 0 0 0
              }
            }
          }
          JOINT R_Humerus
          {
            OFFSET -42.9874 15.7281 -23.1005
            CHANNELS 3 Zrotation Xrotation Yrotation
            End Site
            {
              OFFSET 0 0 0
            }
          }
        }
        JOINT R_Shoulder
        {
          OFFSET -3.24498e-005 -0.000608592 -0.000527677
          CHANNELS 3 Zrotation Xrotation Yrotation
          End Site
          {
            OFFSET 0 0 0
          }
        }
      }
      JOINT Character1_Neck
      {
        OFFSET 0 30.836 0.626
        CHANNELS 3 Zrotation Xrotation Yrotation
        JOINT Character1_Head
        {
          OFFSET 0 8.074 3.498
          CHANNELS 3 Zrotation Xrotation Yrotation
          End Site
          {
            OFFSET 0 -0.00153379 1.54668e-005
          }
        }
        JOINT Neck
        {
          OFFSET -0.967711 0.114399 -0.279529
          CHANNELS 3 Zrotation Xrotation Yrotation
          End Site
          {
            OFFSET 0 0 0
          }
        }
      }
      JOINT Torso
      {
        OFFSET 0 -0.000828813 -0.000380861
        CHANNELS 3 Zrotation Xrotation Yrotation
        End Site
        {
          OFFSET 0 0 0
        }
      }
    }
    JOINT Spine
    {
      OFFSET -0.414962 -0.0640881 -0.434932
      CHANNELS 3 Zrotation Xrotation Yrotation
      End Site
      {
        OFFSET 0 0 0
      }
    }
  }
  JOINT Character1_RightUpLeg
  {
    OFFSET -9.035 -4.63425 1.845
    CHANNELS 3 Zrotation Xrotation Yrotation
    JOINT Character1_RightLeg
    {
      OFFSET -0.919521 -40.345 1.155
      CHANNELS 3 Zrotation Xrotation Yrotation
      JOINT Character1_RightFoot
      {
        OFFSET 1.95452 -45.2655 -4.18888
        CHANNELS 3 Zrotation Xrotation Yrotation
        JOINT Character1_RightToeBase
        {
          OFFSET 1.87056 -6.69517 14.7145
          CHANNELS 3 Zrotation Xrotation Yrotation
          End Site
          {
            OFFSET 0 0 0
          }
        }
        JOINT R_Foot
        {
          OFFSET 8 -7.75529 4.18888
          CHANNELS 3 Zrotation Xrotation Yrotation
          End Site
          {
            OFFSET 0 0 0
          }
        }
      }
      JOINT R_Tibia
      {
        OFFSET 0 0 0
        CHANNELS 3 Zrotation Xrotation Yrotation
        End Site
        {
          OFFSET 0 0 0
        }
      }
    }
    JOINT R_Femur
    {
      OFFSET 0 0 0
      CHANNELS 3 Zrotation Xrotation Yrotation
      End Site
      {
        OFFSET 0 0 0
      }
    }
  }
  JOINT Character1_LeftUpLeg
  {
    OFFSET 9.035 -4.63425 1.845
    CHANNELS 3 Zrotation Xrotation Yrotation
    JOINT Character1_LeftLeg
    {
      OFFSET 0.919521 -40.345 1.155
      CHANNELS 3 Zrotation Xrotation Yrotation
      JOINT Character1_LeftFoot
      {
        OFFSET -1.95452 -45.2655 -4.18888
        CHANNELS 3 Zrotation Xrotation Yrotation
        JOINT Character1_LeftToeBase
        {
          OFFSET -1.87056 -6.69517 14.7145
          CHANNELS 3 Zrotation Xrotation Yrotation
          End Site
          {
            OFFSET 0 0 0
          }
        }
        JOINT L_Foot
        {
          OFFSET -8 -7.75529 4.18888
          CHANNELS 3 Zrotation Xrotation Yrotation
          End Site
          {
            OFFSET 0 0 0
          }
        }
      }
      JOINT L_Tibia
      {
        OFFSET 0 0 0
        CHANNELS 3 Zrotation Xrotation Yrotation
        End Site
        {
          OFFSET 0 0 0
        }
      }
    }
    JOINT L_Femur
    {
      OFFSET 0 0 0
      CHANNELS 3 Zrotation Xrotation Yrotation
      End Site
      {
        OFFSET 0 0 0
      }
    }
  }
  JOINT Pelvis
  {
    OFFSET 0 0 0
    CHANNELS 3 Zrotation Xrotation Yrotation
    End Site
    {
      OFFSET 0 0 0
    }
  }
}
MOTION
Frames:	4
Frame Time:	0.0416667
-52.5176 92.4074 9.20822 -6.28826 2.09827 25.2329 1.49089e-015 -7.95139e-016 3.18055e-015 7.53574 3.63893 3.49472 -0.116539 -0.000926675 0.0315371 -85.0557 10.4518 3.07451 16.5376 9.46987 -20.1906 -0.971569 -0.00320398 -1.02722 3.8266e-015 20 -0 83 1.59028e-015 -85 7.95139e-016 1.59028e-015 6.36111e-015 -0.115292 0.00162941 -0.03989 72.9439 13.774 2.3978 -17.3869 -5.36424 28.6994 0.241285 0.00386528 0.244914 -2.02293e-015 20 -3.38468e-015 -83 3.97569e-016 85 -2.38542e-015 3.18055e-015 -0 -7.95139e-016 0 -0 -2.36851 2.00378 -6.98219 -8.09092 -0.527836 -1.06788 -7.95139e-016 0 -0 5.40674 6.61276 19.3154 5.77038 6.98009 1.14457 -0.538567 12.8533 -5.36348 0.153118 -15.2642 -0.819457 -6.50371 -53.2708 -0.895921 -3.97569e-016 0 3.18055e-015 -3.53113e-031 6.36111e-015 3.18055e-015 0 0 -0 10.8733 -36.1131 1.86658 1.37151 19.6319 11.9204 -3.7839 7.36991 0.425489 0.0013872 3.24641 -0.0621759 -3.97569e-016 7.95139e-016 3.18055e-015 -7.95139e-016 3.97569e-015 3.18055e-015 1.59028e-015 -6.36111e-015 -3.18055e-015 1.49089e-015 -7.95139e-016 3.18055e-015 
-49.7529 92.1329 13.1297 -5.25714 1.60282 25.7755 6.95746e-016 1.19271e-015 -0 6.58762 3.94315 4.31401 -0.143022 -0.000926675 0.0090642 -84.7931 7.24371 3.23893 16.6089 13.0986 -19.1513 -1.14729 -0.00320366 -1.3055 1.37971e-015 20 2.11542e-016 83 -4.77083e-015 -85 7.95139e-016 -1.59028e-015 -0 -0.138276 0.00162941 -0.0181237 74.0856 12.867 1.02567 -17.517 -6.79584 29.9629 0.174877 0.0038653 0.159112 -4.04585e-015 20 -6.76935e-015 -83 0 85 -0 0 6.36111e-015 7.95139e-016 -7.95139e-016 -0 -1.9984 2.50032 -6.95794 -7.95275 0.121427 -0.958335 7.95139e-016 -7.95139e-016 -0 4.25857 6.30856 20.4916 4.69993 8.34297 1.59762 -0.640306 16.4075 -5.54429 -0.123603 -9.08944 -0.548384 -161.285 -79.9119 -164.682 -7.95139e-016 6.36111e-015 3.18055e-015 -1.59028e-015 -3.18055e-015 3.18055e-015 -7.95139e-016 -1.59028e-015 -3.18055e-015 9.18496 -35.2614 1.22807 0.631494 24.0808 7.42816 -4.04655 8.13156 0.45959 -0.00182395 -1.36532 0.0192337 -2.58627e-034 -4.65902e-018 -3.18055e-015 -1.76556e-031 -1.59028e-015 -6.36111e-015 1.59028e-015 9.54166e-015 -6.36111e-015 6.95746e-016 1.19271e-015 -0 
-46.7174 92.3829 16.8452 -4.16375 1.94698 26.4941 0 9.93923e-016 -0 5.42683 2.51649 4.2749 -0.115242 -0.000926675 0.0185995 -84.857 4.8431 4.84447 16.7225 14.0732 -19.0178 -1.19129 -0.00320357 -1.37089 6.50801e-015 20 -2.11542e-016 83 1.59028e-015 -85 1.19271e-015 7.95139e-016 3.18055e-015 -0.112457 0.00162941 -0.0247451 75.5955 12.3426 -1.04113 -17.6174 -7.58652 30.7326 0.137508 0.0038653 0.131922 0 20 -0 -83 7.95139e-016 85 0 0 -0 -3.97569e-016 -7.95139e-016 -6.36111e-015 -2.01643 4.27259 -6.76111 -7.71217 0.733674 -0.758087 -3.97569e-016 -7.95139e-016 -6.36111e-015 3.13972 5.40952 21.0186 2.83137 5.26677 1.0605 -0.683342 26.0192 -3.7745 -0.162813 -4.82038 -0.353937 -86.6589 -80.217 -74.6311 -1.59028e-015 -6.36111e-015 -0 -3.18055e-015 6.36111e-015 3.18055e-015 0 7.95139e-016 -0 6.80868 -34.3625 1.53972 0.130312 26.6425 5.23119 -2.87138 4.48321 0.336241 0.00396983 -4.64185 0.0773191 -7.76503e-019 1.55301e-018 -9.54166e-015 -1.98785e-016 3.97569e-016 -0 4.77083e-015 0 9.54166e-015 0 9.93923e-016 -0 
-43.7872 92.2045 20.299 -2.37634 2.07833 28.6509 -1.98785e-016 0 -6.36111e-015 4.15799 2.86956 2.843 -0.120701 -0.000926676 0.00589315 -84.9453 3.10695 4.52627 16.7499 14.8052 -18.8443 -1.22635 -0.00320348 -1.43925 -1.53181e-015 20 8.46169e-016 83 -1.59028e-015 -85 -3.97569e-016 0 -6.36111e-015 -0.120112 0.00162941 -0.0120688 76.8208 10.5098 -2.09173 -17.9097 -7.51081 31.0167 0.157353 0.0038653 0.138191 7.51874e-015 20 -3.38468e-015 -83 -7.95139e-016 85 3.97569e-016 -7.95139e-016 -9.54166e-015 2.64834e-031 1.59028e-015 -9.54166e-015 -2.36386 3.8994 -6.81857 -8.11579 -0.0991335 -0.819029 2.64834e-031 1.59028e-015 -9.54166e-015 1.22863 5.71185 21.4152 -0.10354 -0.640958 -1.02184 -0.551159 38.6694 -0.472956 -0.263736 6.92642 0.186139 -125.786 -74.4627 -108.914 -3.18055e-015 -3.18055e-015 6.36111e-015 -3.18055e-015 0 -0 -1.98785e-016 -3.97569e-016 -0 4.03792 -33.1138 2.53343 -0.449963 29.9409 1.55187 -1.2715 0.3259 0.259671 -0.00171495 -1.35618 0.0198882 2.15523e-035 -3.88251e-019 3.18055e-015 3.97569e-016 4.96962e-017 3.18055e-015 1.59028e-015 -3.18055e-015 -0 -1.98785e-016 0 -6.36111e-015 
